#define about_logo_width 330
#define about_logo_height 128
static char about_logo_bits[] = {
 0x00,0x00,0x00,0x00,0x00,0x00,0x00,0x00,0x00,0x00,0x00,0x00,0x00,0x00,0x00,
 0x00,0x00,0x00,0x00,0x00,0x00,0x00,0x00,0x00,0x00,0x00,0x00,0x00,0x00,0x00,
 0x00,0x00,0x00,0x00,0x00,0x00,0x00,0x00,0x00,0x00,0x00,0xfc,0x00,0x00,0x00,
 0x00,0x00,0x00,0x00,0x00,0x00,0x00,0x00,0x00,0x00,0x00,0x00,0x00,0x00,0x00,
 0x00,0x00,0x00,0x00,0x00,0x00,0x00,0x00,0x00,0x00,0x00,0x00,0x00,0x00,0x00,
 0x00,0x00,0x00,0x00,0x00,0x00,0x00,0x00,0xfc,0x00,0x00,0x00,0x00,0x00,0x00,
 0x00,0x00,0x00,0x00,0x00,0x00,0x00,0x00,0x00,0x00,0x00,0x00,0x00,0x00,0x00,
 0x00,0x00,0x00,0x00,0x00,0x00,0x00,0x00,0x00,0x00,0x00,0x00,0x00,0x00,0x00,
 0x00,0x00,0x00,0x00,0x00,0xfc,0x00,0x00,0x00,0x00,0x00,0x00,0x00,0x00,0x00,
 0x00,0x00,0x00,0x00,0x00,0x00,0x00,0x00,0x00,0x00,0x00,0x00,0x00,0x00,0x00,
 0x00,0x00,0x00,0x00,0x00,0x00,0x00,0x00,0x00,0x00,0x00,0x00,0x00,0x00,0x00,
 0x00,0x00,0xfc,0x00,0x00,0x00,0x00,0x00,0x00,0x00,0x00,0x00,0x00,0x00,0x00,
 0x00,0x00,0x00,0x00,0x00,0x00,0x00,0x00,0x00,0x00,0x00,0x00,0x00,0x00,0x00,
 0x00,0x00,0x00,0x00,0x00,0x00,0x00,0x00,0x00,0x00,0x00,0x00,0x00,0x00,0xfc,
 0x00,0x00,0x00,0x00,0x00,0x00,0x00,0x00,0x00,0x00,0x00,0x00,0x00,0x00,0x00,
 0x00,0x00,0x00,0x00,0x00,0x00,0x00,0x00,0x00,0x00,0x00,0x00,0x00,0x00,0x00,
 0x00,0x00,0x00,0x00,0x00,0x00,0x00,0x00,0x00,0x00,0x00,0xfc,0x00,0x00,0x00,
 0x00,0x00,0x00,0x00,0x00,0x00,0x00,0x00,0x00,0x00,0x00,0x00,0x00,0x00,0x00,
 0x00,0x00,0x00,0x00,0x00,0x00,0x00,0x00,0x00,0x00,0x00,0xe0,0x00,0x00,0x00,
 0x00,0x00,0x00,0x00,0x00,0x00,0x00,0x00,0xfc,0x00,0x00,0x00,0x00,0x00,0x00,
 0x00,0x00,0x00,0x00,0x00,0x00,0x00,0x00,0x00,0x00,0x00,0x00,0x00,0x00,0x00,
 0x00,0x00,0x00,0x00,0x00,0x00,0x00,0x00,0x30,0x02,0x00,0x00,0x00,0x00,0x00,
 0x00,0x00,0x00,0x00,0x00,0xfc,0x00,0x00,0x00,0x00,0x00,0x00,0x00,0x00,0x00,
 0x00,0x00,0x00,0x00,0x00,0x00,0x00,0x00,0x00,0x00,0x00,0x00,0x00,0x00,0x00,
 0x00,0x00,0x00,0x00,0x00,0x18,0x02,0x00,0x00,0x00,0x00,0x00,0x00,0x00,0x00,
 0x00,0x00,0xfc,0x00,0x00,0x00,0x00,0x00,0x00,0x00,0x00,0x00,0x00,0x00,0x00,
 0x00,0x00,0x00,0x00,0x00,0x00,0x00,0x00,0x00,0x00,0x00,0x00,0x00,0x00,0x00,
 0x00,0x00,0x38,0x02,0x00,0x00,0x00,0x00,0x00,0x00,0x00,0x00,0x00,0x00,0xfc,
 0x00,0x00,0x00,0x00,0x00,0x00,0x00,0x00,0x00,0x00,0x00,0x00,0x00,0x00,0x00,
 0x00,0x00,0x00,0x00,0x00,0x00,0x00,0x00,0x00,0x00,0x00,0x00,0x00,0x00,0x58,
 0x03,0x00,0x00,0x00,0x00,0x00,0x00,0x00,0x00,0x00,0x00,0xfc,0x00,0x00,0x00,
 0x00,0x00,0x00,0x00,0x00,0x00,0x00,0x00,0x00,0x00,0x00,0x00,0x00,0x00,0x00,
 0x00,0x00,0x00,0x00,0x00,0x00,0x00,0x00,0x00,0x00,0x00,0xf0,0x03,0x00,0x00,
 0x00,0x00,0x00,0x00,0x00,0x00,0x00,0x00,0xfc,0x00,0x00,0x00,0x00,0x00,0x00,
 0x00,0x00,0x00,0x00,0x00,0x00,0x00,0x00,0x00,0x00,0x00,0x00,0x00,0x00,0x00,
 0x00,0x00,0x00,0x00,0x00,0x00,0x00,0x20,0xe0,0x01,0x00,0x00,0x00,0x00,0x00,
 0x00,0x00,0x00,0x00,0x00,0xfc,0x00,0x00,0x00,0x00,0x00,0x00,0x00,0x00,0x00,
 0x00,0x00,0x00,0x00,0x00,0x00,0x00,0x00,0x00,0x00,0x00,0x00,0x00,0x00,0x00,
 0x00,0x00,0x00,0x00,0xb8,0x00,0x00,0x00,0x00,0x00,0x00,0x00,0x00,0x00,0x00,
 0x00,0x00,0xfc,0x00,0x00,0x00,0x00,0x00,0x00,0x00,0x00,0x00,0x00,0x00,0x00,
 0x00,0x00,0x00,0x00,0x00,0x00,0x00,0x00,0x00,0x00,0x00,0x00,0x00,0x00,0x00,
 0x00,0x0c,0x01,0x00,0x00,0x00,0x00,0x00,0x00,0x00,0x00,0x00,0x00,0x00,0xfc,
 0x00,0x00,0x00,0x00,0x00,0x00,0x00,0x00,0x00,0x00,0x00,0x00,0x00,0x00,0x00,
 0x00,0x00,0x00,0x00,0x00,0x00,0x00,0x00,0x00,0x00,0x00,0x00,0x00,0x1c,0x01,
 0x00,0x00,0x00,0x00,0x00,0x00,0x00,0x00,0x00,0x00,0x00,0xfc,0x00,0x00,0x00,
 0x00,0x00,0x00,0x00,0x00,0x00,0x00,0x00,0x00,0x00,0x00,0x00,0x00,0x00,0x00,
 0x00,0x00,0x00,0x00,0x00,0x00,0x00,0x00,0x00,0x00,0x8c,0x01,0x00,0x00,0x00,
 0x00,0x00,0x00,0x00,0x00,0x00,0x00,0x00,0xfc,0x00,0x00,0x00,0x00,0x00,0x00,
 0x00,0x00,0x00,0x00,0x00,0x00,0x00,0x00,0x00,0x00,0x00,0x00,0x00,0x00,0x00,
 0x00,0x00,0x00,0x00,0x00,0x00,0x00,0xb8,0x01,0x00,0x00,0x00,0x00,0x00,0x00,
 0x00,0x00,0x00,0x00,0x00,0xfc,0x00,0x00,0x00,0x00,0x00,0x00,0x00,0x00,0x00,
 0x00,0x00,0x00,0x00,0x00,0x00,0x00,0x00,0x00,0x00,0x00,0x00,0x00,0x00,0x00,
 0x00,0x00,0x00,0x00,0xf8,0x00,0x00,0x00,0x00,0x00,0x00,0x00,0x00,0x00,0x00,
 0x00,0x00,0xfc,0x00,0x00,0x00,0x00,0x00,0x00,0x00,0x00,0x00,0x00,0x00,0x00,
 0x00,0x00,0x00,0x00,0x00,0x00,0x00,0x00,0x00,0x00,0x00,0x00,0x00,0x0f,0x00,
 0x00,0x40,0x00,0x00,0x00,0x00,0x00,0x00,0x00,0x00,0x00,0x00,0x00,0x00,0xfc,
 0x00,0x00,0x00,0x00,0x00,0x00,0x00,0x00,0x00,0x00,0x00,0x00,0x00,0x00,0x00,
 0x00,0x00,0x00,0x00,0x00,0x00,0x00,0x00,0x00,0x80,0x11,0x00,0x00,0x00,0x00,
 0x00,0x00,0x00,0x00,0x00,0x00,0x00,0x00,0x00,0x00,0x00,0xfc,0x00,0x00,0x00,
 0x00,0x00,0x00,0x00,0x00,0x00,0x00,0x00,0x00,0x00,0x00,0x00,0x00,0x00,0x00,
 0x00,0x00,0x00,0x00,0x00,0x00,0x80,0x21,0x00,0x80,0x00,0x00,0x00,0x00,0x00,
 0x00,0x00,0x00,0x00,0x00,0x00,0x00,0x00,0xfc,0x00,0x00,0x00,0x00,0x00,0x00,
 0x00,0x00,0x00,0x00,0x00,0x00,0x00,0x00,0x00,0x00,0x00,0x00,0x00,0x00,0x00,
 0x00,0x00,0x00,0xc0,0x10,0x00,0x60,0x03,0x00,0x00,0x00,0x00,0x00,0x00,0x00,
 0x00,0x00,0x00,0x00,0x00,0xfc,0x00,0x00,0x00,0x00,0x00,0x00,0x00,0x00,0x00,
 0x00,0x00,0x00,0x00,0x00,0x00,0x00,0x00,0x00,0x00,0x00,0x00,0x00,0x00,0x00,
 0x80,0x37,0x00,0x30,0x04,0x00,0x00,0x00,0x00,0x00,0x00,0x00,0x00,0x00,0x00,
 0x00,0x00,0xfc,0x00,0x00,0x00,0x00,0x00,0x00,0x00,0x00,0x00,0x00,0x00,0x00,
 0x00,0x00,0x00,0x00,0x00,0x00,0x00,0x00,0x00,0x00,0x00,0x00,0x80,0x1f,0x38,
 0x30,0x04,0x00,0x00,0x00,0x00,0x00,0x00,0x00,0x00,0x00,0x00,0x00,0x00,0xfc,
 0x00,0x00,0x00,0x00,0x00,0x00,0x00,0x00,0x00,0x00,0x00,0x00,0x00,0x00,0x00,
 0x00,0x00,0x00,0x00,0x00,0x00,0x00,0x00,0x00,0x00,0x06,0x94,0x70,0x04,0x00,
 0x00,0x00,0x00,0x00,0x00,0x00,0x00,0x00,0x00,0x00,0x00,0xfc,0x00,0x00,0x00,
 0x00,0x00,0x00,0x00,0x00,0x00,0x00,0x00,0x00,0x00,0x00,0x00,0x00,0x00,0x00,
 0x00,0x00,0x00,0x00,0x00,0x00,0x00,0x00,0x86,0xb0,0x07,0x00,0x00,0x00,0x00,
 0x00,0x00,0x00,0x00,0x00,0x00,0x00,0x00,0xfc,0x00,0x00,0x00,0x00,0x00,0x00,
 0x00,0x00,0x00,0x00,0x00,0x00,0x00,0x00,0x00,0x00,0x00,0x00,0x00,0x00,0x00,
 0x00,0x00,0x00,0x00,0x00,0x8e,0xe0,0x03,0x00,0x00,0x00,0x00,0x00,0x00,0x00,
 0x00,0x00,0x00,0x00,0x00,0xfc,0x00,0x00,0x00,0x00,0x00,0x00,0x00,0x00,0x00,
 0x00,0x00,0x00,0x00,0x00,0x00,0x00,0x00,0x00,0x00,0x00,0x00,0x00,0x00,0x00,
 0x00,0x00,0xd6,0x40,0x00,0x00,0x00,0x00,0x00,0x00,0x00,0x00,0x00,0x00,0x00,
 0x00,0x00,0xfc,0x00,0x00,0x00,0x00,0x00,0x00,0x00,0x00,0x00,0x00,0x00,0x00,
 0x00,0x00,0x00,0x00,0x00,0x00,0x00,0x00,0x00,0x00,0x00,0x00,0x00,0x00,0xdc,
 0x00,0x00,0x00,0x00,0x00,0x00,0x00,0x00,0x00,0x00,0x00,0x00,0x00,0x00,0xfc,
 0x00,0x00,0x00,0x00,0x00,0x00,0x00,0x00,0x00,0x00,0x00,0x00,0x00,0x00,0x00,
 0x00,0x00,0x00,0x00,0x00,0x00,0x00,0x00,0x00,0x00,0x00,0x7c,0x00,0x00,0x00,
 0x00,0x00,0x00,0x00,0x00,0x00,0x00,0x00,0x00,0x00,0x00,0xfc,0x00,0x00,0x00,
 0x00,0x00,0x00,0x00,0x00,0x00,0x00,0x00,0x00,0x00,0x00,0x00,0x00,0x00,0x00,
 0x00,0x00,0x00,0x00,0x00,0x00,0x00,0x00,0x00,0x00,0x00,0x00,0x00,0x00,0x00,
 0x00,0x00,0x00,0x00,0x00,0x00,0x00,0x00,0xfc,0x00,0x00,0x00,0x00,0x00,0x00,
 0x00,0x00,0x00,0x00,0x00,0x00,0x00,0x00,0x00,0x00,0x00,0x00,0x00,0x00,0x00,
 0x00,0x00,0x00,0x00,0x00,0x00,0x28,0x00,0x00,0x00,0x00,0x00,0x00,0x00,0x00,
 0x00,0x00,0x00,0x00,0x00,0xfc,0x00,0x00,0x00,0x00,0x00,0x00,0x00,0x00,0x00,
 0x00,0x00,0x00,0x00,0x00,0x00,0x00,0x00,0x00,0x00,0x00,0x00,0x00,0x00,0x00,
 0x00,0x00,0x00,0x4c,0x00,0x00,0x00,0x00,0x00,0x00,0x00,0x00,0x00,0x00,0x00,
 0x00,0x00,0xfc,0x00,0x00,0x00,0x00,0x00,0x00,0x00,0x00,0x00,0x00,0x00,0x00,
 0x00,0x00,0x00,0x00,0x00,0x00,0x00,0x00,0x00,0x00,0x00,0x00,0x00,0x00,0x00,
 0x86,0x00,0x00,0x00,0x00,0x00,0x00,0x00,0x00,0x00,0x00,0x00,0x00,0x00,0xfc,
 0x00,0x00,0x00,0x00,0x00,0x00,0x00,0x00,0x00,0x00,0x00,0x00,0x00,0x00,0x00,
 0x00,0x00,0x00,0x00,0x00,0x00,0x00,0x00,0x00,0x00,0x00,0x00,0x86,0x00,0x00,
 0x00,0x00,0x00,0x00,0x00,0x00,0x00,0x00,0x00,0x00,0x00,0xfc,0x00,0x00,0x00,
 0x00,0x00,0x00,0x00,0x00,0x00,0x00,0x00,0x00,0x00,0x00,0x00,0x00,0x00,0x00,
 0x00,0x00,0x00,0x00,0x00,0x00,0x00,0x00,0x00,0xc6,0x00,0x00,0x00,0x00,0x00,
 0x00,0x00,0x00,0x00,0x00,0x00,0x00,0x00,0xfc,0x00,0x00,0x00,0x00,0x00,0x00,
 0x00,0x00,0x00,0x00,0x00,0x00,0x00,0x00,0x00,0x00,0x00,0x00,0x00,0x00,0x00,
 0x00,0x00,0x00,0x00,0x00,0x00,0x5e,0x00,0x00,0x00,0x00,0x00,0x00,0x00,0x00,
 0x00,0x00,0x00,0x00,0x00,0xfc,0x00,0x00,0x00,0x00,0x00,0x00,0x00,0x00,0x00,
 0x00,0x00,0x00,0x00,0x00,0x00,0x00,0x00,0x00,0x00,0x00,0x00,0x00,0x00,0x00,
 0x00,0x00,0x00,0x7c,0x00,0x00,0x00,0x00,0x00,0x00,0x00,0x00,0x00,0x00,0x00,
 0x00,0x00,0xfc,0x00,0x00,0x00,0x00,0x00,0x00,0x00,0x00,0x00,0x00,0x00,0x00,
 0x00,0x00,0x00,0x00,0x00,0x00,0x00,0x00,0x00,0x00,0x00,0x00,0x00,0x00,0x00,
 0x10,0x00,0x00,0x00,0x00,0x00,0x00,0x00,0x00,0x00,0x00,0x00,0x00,0x00,0xfc,
 0x00,0x00,0x00,0x00,0x00,0x00,0x00,0x00,0x00,0x00,0x00,0x00,0x00,0x00,0x00,
 0x00,0x00,0x00,0x00,0x00,0x00,0x00,0x00,0x00,0x00,0x00,0x00,0x00,0x00,0x00,
 0x00,0x00,0x00,0x00,0x00,0x00,0x00,0x00,0x00,0x00,0x00,0xfc,0x00,0x00,0x00,
 0x00,0x00,0x00,0x00,0x00,0x00,0x00,0x00,0x00,0x00,0x00,0x00,0x00,0x00,0x00,
 0x00,0x00,0x00,0x00,0x00,0x00,0x00,0x00,0x00,0x00,0x00,0x00,0x00,0x00,0x00,
 0x00,0x00,0x00,0x00,0x00,0x00,0x00,0x00,0xfc,0x00,0x00,0x00,0x00,0x00,0x00,
 0x00,0x00,0x00,0x00,0x00,0x00,0x00,0x00,0x00,0x00,0x00,0x00,0x00,0x00,0x00,
 0x00,0x00,0x00,0x00,0x00,0x00,0x00,0x00,0x00,0x00,0x00,0x00,0x00,0x00,0x00,
 0x00,0x00,0x00,0x00,0x00,0xfc,0x00,0x00,0x00,0x00,0x00,0x00,0x00,0x00,0x00,
 0x00,0x00,0x00,0x00,0x00,0x00,0x00,0x00,0x00,0x00,0x00,0x00,0x00,0x00,0x00,
 0x00,0x00,0x00,0x00,0x00,0x00,0x00,0x00,0x00,0x00,0x00,0x00,0x00,0x00,0x00,
 0x00,0x00,0xfc,0x00,0x00,0x00,0x00,0x00,0x00,0x00,0x00,0x00,0x00,0x00,0x00,
 0x00,0x00,0x00,0x00,0x00,0x00,0x00,0x00,0x00,0x00,0x00,0x00,0x00,0x00,0x00,
 0x3c,0x00,0x00,0x00,0x00,0x00,0x00,0x00,0x00,0x00,0x00,0x00,0x00,0x00,0xfc,
 0x00,0x00,0x00,0x00,0x00,0x00,0x00,0x00,0x00,0x00,0x00,0x00,0x00,0x00,0x00,
 0x00,0x00,0x00,0x00,0x00,0x00,0x00,0x00,0x00,0x00,0x00,0x00,0x46,0x00,0x00,
 0x00,0x00,0x00,0x00,0x00,0x00,0x00,0x00,0x00,0x00,0x00,0xfc,0x00,0x00,0x00,
 0x00,0x00,0x00,0x00,0x00,0x00,0x00,0x00,0x00,0x00,0x00,0x00,0x00,0x00,0x00,
 0x00,0x00,0x00,0x00,0x00,0x00,0x00,0x00,0x00,0x82,0x00,0x00,0x00,0x00,0x00,
 0x00,0x00,0x00,0x00,0x00,0x00,0x00,0x00,0xfc,0x00,0x00,0x00,0x00,0x00,0x00,
 0x00,0x00,0x00,0x00,0x00,0x00,0x00,0x00,0x00,0x00,0x00,0x00,0x00,0x00,0x00,
 0x00,0x00,0x00,0x00,0x00,0x00,0x8e,0x00,0x00,0x00,0x00,0x00,0x00,0x00,0x00,
 0x00,0x00,0x00,0x00,0x00,0xfc,0x00,0x00,0x00,0x00,0x00,0x00,0x00,0x00,0x00,
 0x00,0x00,0x00,0x00,0x00,0x00,0x00,0x00,0x00,0x00,0x00,0x00,0x00,0x00,0x00,
 0x00,0x00,0x00,0x76,0x00,0x00,0x00,0x00,0x00,0x00,0x00,0x00,0x00,0x00,0x00,
 0x00,0x00,0xfc,0x00,0x00,0x00,0x00,0x00,0x00,0x00,0x00,0x00,0x00,0x00,0x00,
 0x00,0x00,0x00,0x00,0x00,0x00,0x00,0x00,0x00,0x00,0x00,0x00,0x00,0x00,0x00,
 0x7c,0x00,0x00,0x00,0x00,0x00,0x00,0x00,0x00,0x00,0x00,0x00,0x00,0x00,0xfc,
 0x00,0x00,0x00,0x00,0x00,0x00,0x00,0x00,0x00,0x00,0x00,0x00,0x00,0x00,0x00,
 0x00,0x00,0x00,0x00,0x00,0x00,0x00,0x00,0x00,0x00,0x00,0x00,0x18,0x00,0x00,
 0x00,0x00,0x00,0x00,0x00,0x00,0x00,0x00,0x00,0x00,0x00,0xfc,0x00,0x00,0x00,
 0x00,0x00,0x00,0x00,0x00,0x00,0x00,0x00,0x00,0x00,0x00,0x00,0x00,0x00,0x00,
 0x00,0x00,0x00,0x00,0x00,0x00,0x00,0x00,0x00,0x00,0x00,0x00,0x00,0x00,0x00,
 0x00,0x00,0x00,0x00,0x00,0x00,0x00,0x00,0xfc,0x00,0x00,0x00,0x00,0x00,0x00,
 0x00,0x00,0x00,0x00,0x00,0x00,0x00,0x00,0x00,0x00,0x00,0x00,0x00,0x00,0x00,
 0x00,0x00,0x00,0x00,0x00,0x00,0x00,0x00,0x00,0x00,0x00,0x00,0x00,0x00,0x00,
 0x00,0x00,0x00,0x00,0x00,0xfc,0x00,0x00,0x00,0x00,0x00,0x00,0x00,0x00,0x00,
 0x00,0x00,0x00,0x00,0x00,0x00,0x00,0x00,0x00,0x00,0x00,0x00,0x00,0x00,0x00,
 0x00,0x00,0x00,0x00,0x00,0x00,0x00,0x00,0x00,0x00,0x00,0x00,0x00,0x00,0x00,
 0x00,0x00,0xfc,0x00,0x00,0x00,0x00,0x00,0x00,0x00,0x00,0x00,0x00,0x00,0x00,
 0x00,0x00,0x00,0x00,0x00,0x00,0x00,0x00,0x00,0x00,0x00,0x00,0x00,0x00,0x00,
 0x00,0x00,0x00,0x00,0x00,0x00,0x00,0x00,0x00,0x00,0x00,0x00,0x00,0x00,0xfc,
 0x40,0x00,0x08,0x00,0x08,0x00,0x00,0x55,0xff,0x01,0x00,0x00,0x00,0xff,0x21,
 0x00,0xa0,0xea,0x2f,0x00,0x00,0x00,0xfa,0x0f,0x00,0x00,0x00,0x00,0x00,0x80,
 0x20,0x00,0x00,0xf0,0x75,0x00,0x00,0x00,0xff,0x83,0x00,0xfc,0xc0,0xff,0x0f,
 0x00,0xfc,0x1f,0x00,0xff,0xff,0x0f,0x00,0x00,0xe0,0xeb,0x3f,0x00,0xf0,0xff,
 0xff,0x01,0x00,0xfe,0xff,0x7f,0x00,0x00,0xf0,0xff,0x0f,0xc0,0x7f,0x00,0x00,
 0xc0,0x3f,0x00,0x00,0xf0,0xff,0xdf,0x00,0xfc,0x00,0xfe,0x01,0x00,0xe0,0x03,
 0x00,0xf8,0x01,0x3f,0x00,0x00,0xf0,0x00,0x3f,0x00,0x80,0x3f,0xe0,0x07,0x00,
 0xf0,0x07,0xfc,0x01,0x00,0x00,0xff,0x00,0x00,0x7f,0x00,0x00,0x00,0x0f,0x00,
 0x00,0xfc,0x00,0xfe,0x00,0xfc,0x00,0xfe,0x00,0x00,0xc0,0x03,0x00,0xf8,0x01,
 0x7c,0x00,0x00,0x38,0x00,0x1c,0x00,0x00,0x1f,0xc0,0x0f,0x00,0xe0,0x07,0xf0,
 0x03,0x00,0x00,0xfe,0x00,0x00,0xfe,0x00,0x00,0x00,0x0f,0x00,0x00,0x1f,0x00,
 0xf8,0x00,0xfc,0x00,0xfc,0x00,0x00,0x80,0x01,0x00,0xf8,0x01,0xf8,0x01,0x00,
 0x3c,0x00,0x38,0x00,0x00,0x3f,0x00,0x1f,0x00,0xe0,0x07,0xe0,0x07,0x00,0x00,
 0x7c,0x00,0x00,0xfc,0x01,0x00,0x00,0x0e,0x00,0x80,0x0f,0x00,0xf0,0x01,0xfc,
 0x00,0x7c,0x00,0x00,0x80,0x03,0x00,0xf0,0x01,0xf0,0x01,0x00,0x1e,0x00,0x10,
 0x00,0x00,0x1f,0x00,0x3f,0x00,0xe0,0x07,0xe0,0x07,0x00,0x00,0x7c,0x00,0x00,
 0xfc,0x03,0x00,0x00,0x06,0x00,0xc0,0x07,0x00,0xc0,0x00,0xfc,0x00,0xfc,0x00,
 0x00,0x80,0x01,0x00,0xf8,0x01,0xe0,0x03,0x00,0x1e,0x00,0x30,0x00,0x00,0x3f,
 0x00,0x7e,0x00,0xe0,0x07,0xc0,0x0f,0x00,0x00,0x7c,0x00,0x00,0xfc,0x07,0x00,
 0x00,0x0e,0x00,0xe0,0x03,0x00,0xc0,0x01,0xfc,0x00,0x7c,0x00,0x00,0x80,0x03,
 0x00,0xf0,0x01,0xe0,0x07,0x00,0x0f,0x00,0x20,0x00,0x00,0x1f,0x00,0x7c,0x00,
 0xe0,0x03,0xc0,0x0f,0x00,0x00,0x7c,0x00,0x00,0xf8,0x0f,0x00,0x00,0x06,0x00,
 0xf0,0x01,0x00,0x80,0x01,0xfc,0x00,0xfc,0x00,0x00,0x80,0x01,0x00,0xf0,0x01,
 0xe0,0x07,0x00,0x1f,0x00,0x20,0x00,0x00,0x3f,0x00,0xfc,0x00,0xe0,0x07,0x80,
 0x0f,0x00,0x00,0x7c,0x00,0x00,0xec,0x1f,0x00,0x00,0x06,0x00,0xf8,0x00,0x00,
 0x00,0x01,0xfc,0x00,0x7c,0x00,0x00,0x80,0x03,0x00,0xf0,0x01,0xc0,0x07,0x00,
 0x1f,0x00,0x00,0x00,0x00,0x1f,0x00,0xfc,0x00,0xe0,0x03,0x80,0x0f,0x00,0x00,
 0x7c,0x00,0x00,0x98,0x3f,0x00,0x00,0x06,0x00,0xf8,0x00,0x00,0x00,0x00,0xfc,
 0x00,0xfc,0x00,0x00,0x80,0x01,0x00,0xf0,0x01,0xc0,0x0f,0x00,0x1f,0x00,0x00,
 0x00,0x00,0x3f,0x00,0xfc,0x00,0xe0,0x07,0x80,0x0f,0x00,0x00,0x7c,0x00,0x00,
 0x18,0x7f,0x00,0x00,0x06,0x00,0x7c,0x00,0x00,0x00,0x00,0xfc,0x00,0x7c,0x00,
 0x00,0x80,0x01,0x00,0xf0,0x01,0xc0,0x07,0x00,0x3f,0x00,0x00,0x00,0x00,0x1f,
 0x00,0xfc,0x00,0xe0,0x03,0x80,0x0f,0x00,0x00,0x7c,0x00,0x00,0x08,0xfe,0x00,
 0x00,0x06,0x00,0x7c,0x00,0x00,0x00,0x00,0xfc,0x00,0xfc,0x00,0x00,0x80,0x01,
 0x00,0xf0,0x01,0xc0,0x0f,0x00,0x3e,0x00,0x00,0x00,0x00,0x3f,0x00,0xfc,0x00,
 0xe0,0x07,0xc0,0x0f,0x00,0x00,0x7c,0x00,0x00,0x18,0xfc,0x01,0x00,0x06,0x00,
 0x7e,0x00,0x00,0x00,0x00,0xfc,0x00,0x7c,0x00,0x00,0x80,0x01,0x00,0xf0,0x01,
 0xc0,0x07,0x00,0xfe,0x00,0x00,0x00,0x00,0x1f,0x00,0xfc,0x00,0xe0,0x03,0xc0,
 0x07,0x00,0x00,0x7c,0x00,0x00,0x08,0xf8,0x03,0x00,0x06,0x00,0x3e,0x00,0x00,
 0x00,0x00,0xfc,0x00,0xfc,0x00,0x00,0x80,0x01,0x00,0xf0,0x01,0xc0,0x07,0x00,
 0xfe,0x01,0x00,0x00,0x00,0x3f,0x00,0xfc,0x00,0xe0,0x07,0xc0,0x07,0x00,0x00,
 0x7c,0x00,0x00,0x18,0xf0,0x07,0x00,0x06,0x00,0x3e,0x00,0x00,0x00,0x00,0xfc,
 0x00,0x7c,0x00,0x00,0x80,0x01,0x00,0xf0,0x01,0xe0,0x07,0x00,0xfc,0x0f,0x00,
 0x00,0x00,0x1f,0x00,0x7c,0x00,0xe0,0x03,0xe0,0x03,0x00,0x00,0x7c,0x00,0x00,
 0x08,0xe0,0x1f,0x00,0x06,0x00,0x3e,0x00,0x00,0x00,0x00,0xfc,0x00,0xfc,0x00,
 0x00,0x80,0x01,0x00,0xf0,0x01,0xe0,0x03,0x00,0xf8,0x3f,0x00,0x00,0x00,0x3f,
 0x00,0x7e,0x00,0xe0,0x07,0xf8,0x01,0x00,0x00,0x7c,0x00,0x00,0x18,0xc0,0x3f,
 0x00,0x06,0x00,0x3f,0x00,0x00,0x00,0x00,0xfc,0x00,0x7c,0x00,0x00,0x80,0x01,
 0x00,0xf0,0x01,0xf0,0x03,0x00,0xf0,0xff,0x00,0x00,0x00,0x1f,0x00,0x3e,0x00,
 0xe0,0x17,0xff,0x00,0x00,0x00,0x7c,0x00,0x00,0x08,0x00,0x7f,0x00,0x06,0x00,
 0x3e,0x00,0x00,0x00,0x00,0xfc,0x00,0xfc,0x00,0x00,0x80,0x01,0x00,0xf0,0x01,
 0xf0,0x01,0x00,0xc0,0xff,0x03,0x00,0x00,0x3f,0x00,0x1f,0x00,0xe0,0xff,0x1f,
 0x00,0x00,0x00,0x7c,0x00,0x00,0x18,0x00,0xfe,0x00,0x06,0x00,0x3f,0x00,0x00,
 0x00,0x00,0xfc,0x00,0x7c,0x00,0x00,0x80,0x01,0x00,0xf0,0x01,0xfc,0x00,0x00,
 0x00,0xff,0x07,0x00,0x00,0x1f,0x80,0x0f,0x00,0xe0,0xa7,0x1f,0x00,0x00,0x00,
 0x7c,0x00,0x00,0x08,0x00,0xfc,0x01,0x06,0x00,0x3e,0x00,0xc0,0xff,0x0f,0xfc,
 0x00,0xfc,0x00,0x00,0x80,0x01,0x00,0xf0,0x01,0x3e,0x00,0x00,0x00,0xfc,0x0f,
 0x00,0x00,0x3f,0xe0,0x07,0x00,0xe0,0x07,0x3f,0x00,0x00,0x00,0x7c,0x00,0x00,
 0x18,0x00,0xf8,0x03,0x06,0x00,0x3f,0x00,0x00,0xf8,0x07,0xfc,0x00,0x7c,0x00,
 0x00,0x80,0x01,0x00,0xf0,0xff,0x0f,0x00,0x00,0x00,0xe0,0x1f,0x00,0x00,0xff,
 0xff,0x01,0x00,0xe0,0x03,0x7e,0x00,0x00,0x00,0x7c,0x00,0x00,0x08,0x00,0xf0,
 0x07,0x06,0x00,0x3e,0x00,0x00,0xf0,0x03,0xfc,0x00,0xfc,0x00,0x00,0x80,0x01,
 0x00,0xf0,0xff,0x03,0x00,0x00,0x00,0x80,0x3f,0x00,0x00,0xff,0x3f,0x00,0x00,
 0xe0,0x07,0x7e,0x00,0x00,0x00,0x7c,0x00,0x00,0x18,0x00,0xe0,0x0f,0x06,0x00,
 0x7e,0x00,0x00,0xe0,0x03,0xfc,0x00,0x7c,0x00,0x00,0xc0,0x01,0x00,0xf0,0x01,
 0x00,0x00,0x00,0x00,0x00,0x3f,0x00,0x00,0x1f,0x00,0x00,0x00,0xe0,0x03,0xfc,
 0x00,0x00,0x00,0x7c,0x00,0x00,0x08,0x00,0xc0,0x3f,0x06,0x00,0x7e,0x00,0x00,
 0xe0,0x03,0xfc,0x00,0xfc,0x00,0x00,0xc0,0x00,0x00,0xf0,0x01,0x00,0x00,0x00,
 0x00,0x00,0x7e,0x00,0x00,0x3f,0x00,0x00,0x00,0xe0,0x07,0xfc,0x01,0x00,0x00,
 0x7c,0x00,0x00,0x18,0x00,0x80,0x7f,0x06,0x00,0x7e,0x00,0x00,0xe0,0x03,0xfc,
 0x00,0x7c,0x00,0x00,0xc0,0x00,0x00,0xf0,0x01,0x00,0x00,0x00,0x00,0x00,0x7c,
 0x00,0x00,0x1f,0x00,0x00,0x00,0xe0,0x03,0xf8,0x01,0x00,0x00,0x7c,0x00,0x00,
 0x08,0x00,0x00,0xff,0x06,0x00,0xfc,0x00,0x00,0xe0,0x03,0xfc,0x00,0xfc,0x00,
 0x00,0xc0,0x00,0x00,0xf0,0x01,0x00,0x00,0x00,0x00,0x00,0x7c,0x00,0x00,0x3f,
 0x00,0x00,0x00,0xe0,0x07,0xf0,0x03,0x00,0x00,0x7c,0x00,0x00,0x18,0x00,0x00,
 0xfe,0x07,0x00,0xfc,0x00,0x00,0xe0,0x03,0xfc,0x00,0xf8,0x00,0x00,0xc0,0x00,
 0x00,0xf0,0x01,0x00,0x00,0xc0,0x00,0x00,0x78,0x00,0x00,0x1f,0x00,0x00,0x00,
 0xe0,0x03,0xf0,0x07,0x00,0x00,0x7c,0x00,0x00,0x1c,0x00,0x00,0xfc,0x07,0x00,
 0xf8,0x01,0x00,0xe0,0x03,0xfc,0x00,0xf8,0x00,0x00,0xc0,0x00,0x00,0xf0,0x01,
 0x00,0x00,0x80,0x00,0x00,0x7c,0x00,0x00,0x3f,0x00,0x00,0x00,0xe0,0x07,0xe0,
 0x07,0x00,0x00,0x7c,0x00,0x00,0x18,0x00,0x00,0xf8,0x07,0x00,0xf8,0x01,0x00,
 0xe0,0x03,0xfc,0x00,0xf8,0x01,0x00,0xe0,0x00,0x00,0xf0,0x01,0x00,0x00,0x80,
 0x01,0x00,0x78,0x00,0x00,0x1f,0x00,0x00,0x00,0xe0,0x03,0xc0,0x0f,0x00,0x00,
 0x7c,0x00,0x00,0x1c,0x00,0x00,0xf0,0x07,0x00,0xf0,0x03,0x00,0xe0,0x03,0xfc,
 0x00,0xf8,0x01,0x00,0x70,0x00,0x00,0xf0,0x01,0x00,0x00,0x80,0x01,0x00,0x3c,
 0x00,0x00,0x3f,0x00,0x00,0x00,0xe0,0x07,0x80,0x1f,0x00,0x00,0x7c,0x00,0x00,
 0x18,0x00,0x00,0xe0,0x07,0x00,0xe0,0x07,0x00,0xe0,0x03,0xfc,0x00,0xf0,0x03,
 0x00,0x30,0x00,0x00,0xf0,0x01,0x00,0x00,0x00,0x03,0x00,0x3c,0x00,0x00,0x3f,
 0x00,0x00,0x00,0xe0,0x03,0x00,0x3f,0x00,0x00,0x7c,0x00,0x00,0x1c,0x00,0x00,
 0xc0,0x07,0x00,0xc0,0x0f,0x00,0xf0,0x03,0xfc,0x00,0xe0,0x07,0x00,0x3c,0x00,
 0x00,0xf0,0x01,0x00,0x00,0x00,0x07,0x00,0x1e,0x00,0x00,0x3f,0x00,0x00,0x00,
 0xe0,0x07,0x00,0x7e,0x00,0x00,0x7c,0x00,0x00,0x18,0x00,0x00,0x80,0x07,0x00,
 0x80,0x3f,0x00,0xf0,0x03,0xfc,0x00,0xc0,0x1f,0x00,0x1f,0x00,0x00,0xf0,0x03,
 0x00,0x00,0x00,0x1f,0x00,0x1f,0x00,0x00,0x3f,0x00,0x00,0x00,0xe0,0x07,0x00,
 0xfc,0x00,0x00,0x7e,0x00,0x00,0x1c,0x00,0x00,0x00,0x0f,0x00,0x00,0xfe,0x00,
 0xfc,0x07,0xfc,0x00,0x80,0xff,0xff,0x07,0x00,0x00,0xf8,0x03,0x00,0x00,0x00,
 0xff,0x80,0x07,0x00,0x00,0x7f,0x00,0x00,0x00,0xf0,0x0f,0x00,0xf8,0x01,0x00,
 0xff,0x00,0x00,0x7c,0x00,0x00,0x00,0x06,0x00,0x00,0xfc,0xaf,0xff,0x07,0xfc,
 0x00,0x00,0xfe,0xff,0x01,0x00,0x00,0xfe,0x3f,0x00,0x00,0x00,0xff,0xff,0x03,
 0x00,0xe0,0xff,0x07,0x00,0x00,0xfc,0x3f,0x00,0xf0,0x07,0xf0,0xff,0x0f,0x80,
 0xff,0x07,0x00,0x00,0x0e,0x00,0x00,0xe0,0xff,0x3f,0x00,0xfc,0x00,0x00,0xa0,
 0x17,0x00,0x00,0x00,0x00,0x20,0x00,0x00,0x00,0x80,0x7f,0x00,0x00,0x20,0x00,
 0x00,0x00,0x00,0x04,0x20,0x00,0xc0,0x1f,0x00,0x00,0x00,0x80,0x05,0x05,0x00,
 0x00,0x00,0x00,0x00,0x00,0x7a,0x01,0x00,0xfc,0x00,0x00,0x00,0x00,0x00,0x00,
 0x00,0x00,0x00,0x00,0x00,0x00,0x00,0x00,0x00,0x00,0x00,0x00,0x00,0x00,0x00,
 0x00,0x00,0x00,0x00,0x3e,0x00,0x00,0x00,0x00,0x00,0x00,0x00,0x00,0x00,0x00,
 0x00,0x00,0x00,0x00,0x00,0xfc,0x00,0x00,0x00,0x00,0x00,0x00,0x00,0x00,0x00,
 0x00,0x00,0x00,0x00,0x00,0x00,0x00,0x00,0x00,0x00,0x00,0x00,0x00,0x00,0x00,
 0x00,0x00,0x00,0x00,0x00,0x00,0x00,0x00,0x00,0x00,0x00,0x00,0x00,0x00,0x00,
 0x00,0x00,0xfc,0x00,0x00,0x00,0x00,0x00,0x00,0x00,0x00,0x00,0x00,0x00,0x00,
 0x00,0x00,0x00,0x00,0x00,0x00,0x00,0x00,0x00,0x00,0x00,0x00,0x00,0x00,0x00,
 0x00,0x00,0x00,0x00,0x00,0x00,0x00,0x00,0x00,0x00,0x00,0x00,0x00,0x00,0xfc,
 0x00,0x00,0x00,0x00,0x00,0x00,0x00,0x00,0x00,0x00,0x00,0x00,0x00,0x00,0x00,
 0x00,0x00,0x00,0x00,0x00,0x00,0x00,0x00,0x00,0x00,0x00,0x00,0x00,0x00,0x00,
 0x00,0x00,0x00,0x00,0x00,0x00,0x00,0x00,0x00,0x00,0x00,0xfc,0x00,0x00,0x00,
 0x00,0x00,0x00,0x00,0x00,0x00,0x00,0x00,0x00,0x00,0x00,0x00,0x00,0x00,0x00,
 0x00,0x00,0x00,0x00,0x00,0x00,0x00,0x00,0x00,0x00,0x00,0x00,0x00,0x00,0x00,
 0x00,0x00,0x00,0x00,0x00,0x00,0x00,0x00,0xfc,0x00,0x00,0x00,0x00,0x00,0x00,
 0x00,0x00,0x00,0x00,0x00,0x00,0x00,0x00,0x00,0x00,0x00,0x00,0x00,0x00,0x00,
 0x00,0x00,0x00,0x00,0x00,0x00,0x00,0x00,0x00,0x00,0x00,0x00,0x00,0x00,0x00,
 0x00,0x00,0x00,0x00,0x00,0xfc,0x00,0x00,0x00,0x00,0x00,0x00,0x00,0x00,0x00,
 0x00,0x00,0x00,0x00,0x00,0x00,0x00,0x00,0x00,0x00,0x00,0x00,0x00,0x00,0x00,
 0x00,0x00,0x00,0x00,0x00,0x00,0x00,0x00,0x00,0x00,0x00,0x00,0x00,0x00,0x00,
 0x00,0x00,0xfc,0x00,0x00,0x00,0x00,0x00,0x00,0x00,0x00,0x00,0x00,0x00,0x00,
 0x00,0x00,0x00,0x00,0x00,0x00,0x00,0x00,0x00,0x00,0x00,0x00,0x00,0x00,0x00,
 0x00,0x00,0x00,0x00,0x00,0x00,0x00,0x00,0x00,0x00,0x00,0x00,0x00,0x00,0xfc,
 0x00,0x00,0x00,0x00,0x00,0x00,0x00,0x00,0x00,0x00,0x00,0x00,0x00,0x00,0x00,
 0x00,0x00,0x00,0x00,0x00,0x00,0x00,0x00,0x00,0x00,0x00,0x00,0x00,0x00,0x00,
 0x00,0x00,0x00,0x00,0x00,0x00,0x00,0x00,0x00,0x00,0x00,0xfc,0x00,0x00,0x00,
 0x00,0x00,0x00,0x00,0x00,0x00,0x00,0x00,0x00,0x00,0x00,0x00,0x00,0x00,0x00,
 0x00,0x00,0x00,0x00,0x00,0x00,0x00,0x00,0x00,0x00,0x00,0x00,0x00,0x00,0x00,
 0x00,0x00,0x00,0x00,0x00,0x00,0x00,0x00,0xfc,0x00,0x00,0x00,0x00,0x00,0x00,
 0x00,0x00,0x00,0x00,0x00,0x00,0x00,0x00,0x00,0x00,0x00,0x00,0x00,0x00,0x00,
 0x00,0x00,0x00,0x00,0x00,0x00,0x00,0x00,0x00,0x00,0x00,0x00,0x00,0x00,0x00,
 0x00,0x00,0x00,0x00,0x00,0xfc,0x00,0x00,0x00,0x00,0x00,0x00,0x00,0x00,0x00,
 0x00,0x00,0x00,0x00,0x00,0x00,0x00,0x00,0x00,0x00,0x00,0x00,0x00,0x00,0x00,
 0x00,0x00,0x00,0x00,0x00,0x00,0x00,0x00,0x00,0x00,0x00,0x00,0x00,0x00,0x00,
 0x00,0x00,0xfc,0x00,0x00,0x00,0x00,0x00,0x00,0x00,0x00,0x00,0x00,0x00,0x00,
 0x00,0x00,0x00,0x00,0x00,0x00,0x00,0x00,0x00,0x00,0x00,0x00,0x00,0x00,0x00,
 0x00,0x00,0x00,0x00,0x00,0x00,0x00,0x00,0x00,0x00,0x00,0x00,0x00,0x00,0xfc,
 0x00,0x00,0x00,0x00,0x00,0x00,0x00,0x00,0x00,0x00,0x00,0x00,0x00,0x00,0x00,
 0x00,0x00,0x00,0x00,0x00,0x00,0x00,0x00,0x00,0x00,0x00,0x00,0x00,0x00,0x00,
 0x00,0x00,0x00,0x00,0x00,0x00,0x00,0x00,0x00,0x00,0x00,0xfc,0x00,0x00,0x00,
 0x00,0x00,0x00,0x00,0x00,0x00,0x00,0x00,0x00,0x00,0x00,0x00,0x00,0x00,0x00,
 0x00,0x00,0x00,0x00,0x00,0x00,0x00,0x00,0x00,0x00,0x00,0x00,0x00,0x00,0x00,
 0x00,0x00,0x00,0x00,0x00,0x00,0x00,0x00,0xfc,0x00,0x00,0x00,0x00,0x00,0x00,
 0x00,0x00,0x00,0x00,0x00,0x00,0x00,0x00,0x00,0x00,0x00,0x00,0x00,0x00,0x00,
 0x00,0x00,0x00,0x00,0x00,0x00,0x00,0x00,0x00,0x00,0x00,0x00,0x00,0x00,0x00,
 0x00,0x00,0x00,0x00,0x00,0xfc,0x00,0x80,0x07,0x00,0x00,0x00,0x00,0x1f,0x00,
 0x00,0x00,0x00,0x55,0x01,0x00,0x00,0x00,0x45,0x05,0x00,0x00,0x00,0x2a,0x15,
 0x0d,0x00,0x00,0x00,0x80,0x00,0x00,0x00,0x00,0xe8,0x03,0x00,0x00,0x00,0x40,
 0x75,0x00,0xfc,0x00,0x60,0x0c,0x00,0x00,0x00,0xc0,0x70,0x00,0x00,0x00,0x00,
 0xaf,0x01,0x00,0x00,0x80,0x7b,0x0d,0x00,0x00,0x00,0x1c,0x0e,0x06,0x00,0x00,
 0x00,0xc0,0x00,0x00,0x00,0x00,0x30,0x0e,0x00,0x00,0x00,0x80,0xc3,0x00,0xfc,
 0x00,0x20,0x08,0x00,0x00,0x00,0x60,0xe0,0x00,0x00,0x00,0x00,0x06,0x00,0x00,
 0x00,0x00,0x60,0x08,0x00,0x00,0x00,0x18,0x0c,0x04,0x00,0x00,0x00,0xc0,0x00,
 0x00,0x00,0x00,0x30,0x0c,0x00,0x00,0x00,0x80,0x01,0x00,0xfc,0x00,0x30,0x00,
 0x00,0x00,0x00,0x30,0xc0,0x01,0x00,0x00,0x00,0x06,0x00,0x00,0x00,0x00,0x20,
 0x00,0x00,0x00,0x00,0x18,0x0c,0x02,0x00,0x00,0x00,0xc0,0x01,0x00,0x00,0x00,
 0x30,0x1c,0x00,0x00,0x00,0x80,0x01,0x00,0xfc,0x00,0x30,0x00,0x00,0x00,0x00,
 0x30,0x80,0x01,0x00,0x00,0x00,0x06,0x00,0x00,0x00,0x00,0x70,0x00,0x00,0x00,
 0x00,0x30,0x1c,0x02,0x00,0x00,0x00,0xa0,0x01,0x00,0x00,0x00,0x30,0x08,0x00,
 0x00,0x00,0x80,0x01,0x00,0xfc,0x00,0xe0,0x00,0x00,0x00,0x00,0x10,0x80,0x01,
 0x00,0x00,0x00,0x06,0x01,0x00,0x00,0x00,0x20,0x00,0x00,0x00,0x00,0x30,0x1c,
 0x02,0x00,0x00,0x00,0xa0,0x01,0x00,0x00,0x00,0x30,0x0c,0x00,0x00,0x00,0x80,
 0x41,0x00,0xfc,0x00,0xe0,0x03,0x00,0x00,0x00,0x38,0x80,0x01,0x00,0x00,0x00,
 0xae,0x00,0x00,0x00,0x00,0x70,0x00,0x00,0x00,0x00,0x30,0x1c,0x01,0x00,0x00,
 0x00,0x10,0x03,0x00,0x00,0x00,0x70,0x07,0x00,0x00,0x00,0x80,0x3f,0x00,0xfc,
 0x00,0x80,0x0f,0x00,0x00,0x00,0x38,0x80,0x01,0x00,0x00,0x00,0x8e,0x01,0x00,
 0x00,0x00,0x20,0x00,0x00,0x00,0x00,0x60,0x32,0x01,0x00,0x00,0x00,0x10,0x03,
 0x00,0x00,0x00,0x70,0x03,0x00,0x00,0x00,0x80,0x61,0x00,0xfc,0x00,0x00,0x0e,
 0x00,0x00,0x00,0x30,0x80,0x01,0x00,0x00,0x00,0x06,0x00,0x00,0x00,0x00,0x70,
 0x00,0x00,0x00,0x00,0x60,0x32,0x01,0x00,0x00,0x00,0xf0,0x07,0x00,0x00,0x00,
 0x30,0x07,0x00,0x00,0x00,0x80,0x41,0x00,0xfc,0x00,0x00,0x18,0x00,0x00,0x00,
 0x30,0x80,0x01,0x00,0x00,0x00,0x06,0x00,0x00,0x00,0x00,0x20,0x00,0x00,0x00,
 0x00,0x60,0xb1,0x00,0x00,0x00,0x00,0x08,0x06,0x00,0x00,0x00,0x30,0x0e,0x00,
 0x00,0x00,0x80,0x01,0x00,0xfc,0x00,0x10,0x18,0x00,0x00,0x00,0x70,0x80,0x00,
 0x00,0x00,0x00,0x06,0x00,0x00,0x00,0x00,0x70,0x00,0x00,0x00,0x00,0xc0,0xe1,
 0x00,0x00,0x00,0x00,0x08,0x06,0x00,0x00,0x00,0x30,0x0c,0x00,0x00,0x00,0x80,
 0x01,0x00,0xfc,0x00,0x10,0x18,0x00,0x00,0x00,0xe0,0xc0,0x00,0x00,0x00,0x00,
 0x06,0x00,0x00,0x00,0x00,0x60,0x00,0x00,0x00,0x00,0xc0,0x61,0x00,0x00,0x00,
 0x00,0x0c,0x0c,0x00,0x00,0x00,0x30,0x18,0x00,0x00,0x00,0x80,0x81,0x00,0xfc,
 0x00,0x30,0x0c,0x00,0x00,0x00,0xc0,0x33,0x00,0x00,0x00,0x00,0x0e,0x00,0x00,
 0x00,0x00,0x70,0x00,0x00,0x00,0x00,0x80,0x60,0x00,0x00,0x00,0x00,0x04,0x1c,
 0x00,0x00,0x00,0x70,0x30,0x00,0x00,0x00,0x80,0xe3,0x00,0xfc,0x00,0xd0,0x03,
 0x00,0x00,0x00,0x00,0x1e,0x00,0x00,0x00,0x00,0x15,0x00,0x00,0x00,0x00,0xa8,
 0x00,0x00,0x00,0x00,0x80,0x40,0x00,0x00,0x00,0x00,0x1a,0x14,0x00,0x00,0x00,
 0xa8,0xe0,0x00,0x00,0x00,0x40,0x55,0x00,0xfc,0x00,0x00,0x00,0x00,0x00,0x00,
 0x00,0x00,0x00,0x00,0x00,0x00,0x00,0x00,0x00,0x00,0x00,0x00,0x00,0x00,0x00,
 0x00,0x00,0x00,0x00,0x00,0x00,0x00,0x00,0x00,0x00,0x00,0x00,0x00,0x00,0x00,
 0x00,0x00,0x00,0x00,0x00,0xfc,0x00,0x00,0x00,0x00,0x00,0x00,0x00,0x00,0x00,
 0x00,0x00,0x00,0x00,0x00,0x00,0x00,0x00,0x00,0x00,0x00,0x00,0x00,0x00,0x00,
 0x00,0x00,0x00,0x00,0x00,0x00,0x00,0x00,0x00,0x00,0x00,0x00,0x00,0x00,0x00,
 0x00,0x00,0xfc,0x00,0x00,0x00,0x00,0x00,0x00,0x00,0x00,0x00,0x00,0x00,0x00,
 0x00,0x00,0x00,0x00,0x00,0x00,0x00,0x00,0x00,0x00,0x00,0x00,0x00,0x00,0x00,
 0x00,0x00,0x00,0x00,0x00,0x00,0x00,0x00,0x00,0x00,0x00,0x00,0x00,0x00,0xfc,
 0x00,0x00,0x00,0x00,0x00,0x00,0x00,0x00,0x00,0x00,0x00,0x00,0x00,0x00,0x00,
 0x00,0x00,0x00,0x00,0x00,0x00,0x00,0x00,0x00,0x00,0x00,0x00,0x00,0x00,0x00,
 0x00,0x00,0x00,0x00,0x00,0x00,0x00,0x00,0x00,0x00,0x00,0xfc,0x00,0x00,0x00,
 0x00,0x00,0x00,0x00,0x00,0x00,0x00,0x00,0x00,0x00,0x00,0x00,0x00,0x00,0x00,
 0x00,0x00,0x00,0x00,0x00,0x00,0x00,0x00,0x00,0x00,0x00,0x00,0x00,0x00,0x00,
 0x00,0x00,0x00,0x00,0x00,0x00,0x00,0x00,0xfc,0x00,0x00,0x00,0x00,0x00,0x00,
 0x00,0x00,0x00,0x00,0x00,0x00,0x00,0x00,0x00,0x00,0x00,0x00,0x00,0x00,0x00,
 0x00,0x00,0x00,0x00,0x00,0x00,0x00,0x00,0x00,0x00,0x00,0x00,0x00,0x00,0x00,
 0x00,0x00,0x00,0x00,0x00,0xfc};
