/* XPM */
static char * about_xpm[] = {
"150 125 17 1",
" 	c None",
".	c #666283",
"+	c #3A2673",
"@	c #B6B2D3",
"#	c #FEFEFC",
"$	c #9EA2A0",
"%	c #757775",
"&	c #D4D0D2",
"*	c #373839",
"=	c #444747",
"-	c #918E90",
";	c #0C0C0D",
">	c #AAA5A7",
",	c #575858",
"'	c #E24A34",
")	c #5ABE2C",
"!	c #EA9E34",
"......................................................................................................................................................",
"++++++++++++++++++++++++++++++++++++++++++++++++++++++++++++++++++++++++++++++++++++++++++++++++++++++++++++++++++++++++++++++++++++++++++++++++++++++",
"+.....................................................................................................................................................",
"+@@@@@@@@@@@@@@@@@@@@@@@@@@@@@@@@@@@@@@@@@@@@@@@@@@@@@@@@@@@@@@@@@@@@@@@@@@@@@@@@@@@@@@@@@@@@@@@@@@@@@@@@@@@@@@@@@@@@@@@@@@@@@@@@@@@@@@@@@@@@@@@@@@@@.",
"+@##################################################################################################################################################@.",
"+@##################################################################################################################################################@.",
"+@######################################################################&%=%########################################################################@.",
"+@#######################################################################,;*############$%=*=.@#####################################################@.",
"+@#######################################################################,;+##########$*;*.--,*=&###################################################@.",
"+@#######################################################################,;*#########-;=&######-+@##################################################@.",
"+@################################################$.%@&%*+=-&##$=**.-####.;*###@%.-#>;=#@%,+**,#>=&#################################################@.",
"+@################################################&;;***.=;;*@=;.,*;;.&##.;+###=;;@#+;#@;;%-$.*##%%#################################################@.",
"+@#################################################*;;@###>;;;*####%;;$##.;*##-;=&#-;%#=;%####&###*#################################################@.",
"+@#################################################;;=#####%;;@#####;;,##%;*#%;,&##%;@#=;;-#######,&################################################@.",
"+@#################################################;;$#####$;;@#####*;,##.;;,;;####,;&#&*;;*,>&###.&################################################@.",
"+@#################################################+;.#####-;;######,;*##,+=%;;.###,;&###%*;;;;-&#,#################################################@.",
"+@#################################################;;-#####-;;@#####*;=##.;*#-;;,##%;>#####&$*;;&&.#################################################@.",
"+@#################################################;;%#####>;;######,;*##,;+##-;;,#@;%#&######;;>%&&################################################@.",
"+@#################################################;;%#####-;;@#####=;=##.;*##&.;;%#;;#.%@&&&$;;.$#%################################################@.",
"+@################################################>;;=&####,;;-####&*;+&&*;;>###%;;%$;%&,***+;;.@#,&################################################@.",
"+@################################################&&&&#####@&&&###&&&&&&#@&&&#####&@&.;-##&$$&##&.>#################################################@.",
"+@####################################################################################-;+-&###&-,&##################################################@.",
"+@#####################################################################################&-,*,==,-####################################################@.",
"+@##################################################################################################################################################@.",
"+@##################################################################################################################################################@.",
"+@##################################################################################################################################################@.",
"+@##################################################################################################################################################@.",
"+@##################################################################################################################################################@.",
"+@#################################################''''''########''''''######''''''''######''''''''#################################################@.",
"+@#################################################''''''########''''''######''''''''######''''''''#################################################@.",
"+@###############################################''######''####''######''####''######''####''#######################################################@.",
"+@###############################################''######''####''######''####''######''####''#######################################################@.",
"+@###############################################''############''######''####''######''####''''''###################################################@.",
"+@###############################################''############''######''####''######''####''''''###################################################@.",
"+@###############################################''######''####''######''####''######''####''#######################################################@.",
"+@###############################################''######''####''######''####''######''####''#######################################################@.",
"+@#################################################''''''########''''''######''''''''######''''''''#################################################@.",
"+@#################################################''''''########''''''######''''''''######''''''''#################################################@.",
"+@##################################################################################################################################################@.",
"+@##################################################################################################################################################@.",
"+@##################################################################################################################################################@.",
"+@##################################################################################################################################################@.",
"+@##################################################################################################################################################@.",
"+@##################################################################################################################################################@.",
"+@##################################################################################################################################################@.",
"+@####################''####''######''####''''''''''####''''''''######''''''''####''''''''######''####''''''''''####''######''######################@.",
"+@####################''####''######''####''''''''''####''''''''######''''''''####''''''''######''####''''''''''####''######''######################@.",
"+@####################''####''''####''########''########''##########''############''######''####''########''##########''##''########################@.",
"+@####################''####''''####''########''########''##########''############''######''####''########''##########''##''########################@.",
"+@####################''####''##''##''########''########''''''######''####''''####''''''''######''########''############''##########################@.",
"+@####################''####''##''##''########''########''''''######''####''''####''''''''######''########''############''##########################@.",
"+@####################''####''####''''########''########''##########''######''####''######''####''########''############''##########################@.",
"+@####################''####''####''''########''########''##########''######''####''######''####''########''############''##########################@.",
"+@####################''####''######''########''########''''''''######''''''''####''######''####''########''############''##########################@.",
"+@####################''####''######''########''########''''''''######''''''''####''######''####''########''############''##########################@.",
"+@##################################################################################################################################################@.",
"+@##################################################################################################################################################@.",
"+@##################################################################################################################################################@.",
"+@##################################################################################################################################################@.",
"+@##################################################################################################################################################@.",
"+@##################################################################################################################################################@.",
"+@##################################################################################################################################################@.",
"+@##################################################################################################################################################@.",
"+@##################################################################################################################################################@.",
"+@##################''''##'###'##'''''##''''##''''###''''###''''###'###''''##''''#######''''##''''###'##'''''##'###'''###'###'######################@.",
"+@##################'#####''##'####'####'#####'###'##'###'##'###'##'##'######'##########'#####'###'##'####'####'##'###'##''##'######################@.",
"+@##################'''###'#'#'####'####'''###''''###''''###''''###'###'''###'''########'''###'###'##'####'####'##'###'##'#'#'######################@.",
"+@##################'#####'##''####'####'#####'###'##'######'###'##'######'##'##########'#####'###'##'####'####'##'###'##'##''######################@.",
"+@##################''''##'###'####'####''''##'###'##'######'###'##'##''''###''''#######''''##''''###'####'####'###'''###'###'######################@.",
"+@##################################################################################################################################################@.",
"+@##################################################################################################################################################@.",
"+@##################################################################################################################################################@.",
"+@##################################################################################################################################################@.",
"+@##################################################################################################################################################@.",
"+@##################################################################################################################################################@.",
"+@##################################################################################################################################################@.",
"+@##################################################################################################################################################@.",
"+@##################################################################################################################################################@.",
"+@##################################################################################################################################################@.",
"+@##################################################################################################################################################@.",
"+@##################################################################################################################################################@.",
"+@##################################################################################################################################################@.",
"+@##################################################################################################################################################@.",
"+@##################################################################################################################################################@.",
"+@##################################################################################################################################################@.",
"+@##################################################################################################################################################@.",
".@#++++++++++++++++++++++++++++++++++++)))))))))))))))))))))))))))))))))))''''''''''''''''''''''''''''''''''''''!!!!!!!!!!!!!!!!!!!!!!!!!!!!!!!!!!!!@.",
"+@#++++++++++++++++++++++++++++++++++++)))))))))))))))))))))))))))))))))))''''''''''''''''''''''''''''''''''''''!!!!!!!!!!!!!!!!!!!!!!!!!!!!!!!!!!!!@.",
"+@#++++++++++++++++++++++++++++++++++++)))))))))))))))))))))))))))))))))))''''''''''''''''''''''''''''''''''''''!!!!!!!!!!!!!!!!!!!!!!!!!!!!!!!!!!!!@.",
"+@#++++++++++++++++++++++++++++++++++++)))))))))))))))))))))))))))))))))))''''''''''''''''''''''''''''''''''''''!!!!!!!!!!!!!!!!!!!!!!!!!!!!!!!!!!!!@.",
"+>#++++++++++++++++++++++++++++++++++++)))))))))))))))))))))))))))))))))))''''''''''''''''''''''''''''''''''''''!!!!!!!!!!!!!!!!!!!!!!!!!!!!!!!!!!!!@.",
"+@#++++++++++++++++++++++++++++++++++++)))))))))))))))))))))))))))))))))))''''''''''''''''''''''''''''''''''''''!!!!!!!!!!!!!!!!!!!!!!!!!!!!!!!!!!!!@.",
"+@#++++++++++++++++++++++++++++++++++++)))))))))))))))))))))))))))))))))))''''''''''''''''''''''''''''''''''''''!!!!!!!!!!!!!!!!!!!!!!!!!!!!!!!!!!!!@.",
"+>#++++++++++++++++++++++++++++++++++++)))))))))))))))))))))))))))))))))))''''''''''''''''''''''''''''''''''''''!!!!!!!!!!!!!!!!!!!!!!!!!!!!!!!!!!!!@.",
"+@#++++++++++++++++++++++++++++++++++++)))))))))))))))))))))))))))))))))))''''''''''''''''''''''''''''''''''''''!!!!!!!!!!!!!!!!!!!!!!!!!!!!!!!!!!!!@.",
"+>#++++++++++++++++++++++++++++++++++++)))))))))))))))))))))))))))))))))))''''''''''''''''''''''''''''''''''''''!!!!!!!!!!!!!!!!!!!!!!!!!!!!!!!!!!!!@.",
"+@#++++++++++++++++++++++++++++++++++++)))))))))))))))))))))))))))))))))))''''''''''''''''''''''''''''''''''''''!!!!!!!!!!!!!!!!!!!!!!!!!!!!!!!!!!!!@.",
"+>#++++++++++++++++++++++++++++++++++++)))))))))))))))))))))))))))))))))))''''''''''''''''''''''''''''''''''''''!!!!!!!!!!!!!!!!!!!!!!!!!!!!!!!!!!!!@.",
"+@#++++++++++++++++++++++++++++++++++++)))))))))))))))))))))))))))))))))))''''''''''''''''''''''''''''''''''''''!!!!!!!!!!!!!!!!!!!!!!!!!!!!!!!!!!!!@.",
"+>#++++++++++++++++++++++++++++++++++++)))))))))))))))))))))))))))))))))))''''''''''''''''''''''''''''''''''''''!!!!!!!!!!!!!!!!!!!!!!!!!!!!!!!!!!!!@.",
"+@#++++++++++++++++++++++++++++++++++++)))))))))))))))))))))))))))))))))))''''''''''''''''''''''''''''''''''''''!!!!!!!!!!!!!!!!!!!!!!!!!!!!!!!!!!!!@.",
"+>#++++++++++++++++++++++++++++++++++++)))))))))))))))))))))))))))))))))))''''''''''''''''''''''''''''''''''''''!!!!!!!!!!!!!!!!!!!!!!!!!!!!!!!!!!!!@.",
"+@#++++++++++++++++++++++++++++++++++++)))))))))))))))))))))))))))))))))))''''''''''''''''''''''''''''''''''''''!!!!!!!!!!!!!!!!!!!!!!!!!!!!!!!!!!!!@.",
"+>#++++++++++++++++++++++++++++++++++++)))))))))))))))))))))))))))))))))))''''''''''''''''''''''''''''''''''''''!!!!!!!!!!!!!!!!!!!!!!!!!!!!!!!!!!!!@.",
"+@#++++++++++++++++++++++++++++++++++++)))))))))))))))))))))))))))))))))))''''''''''''''''''''''''''''''''''''''!!!!!!!!!!!!!!!!!!!!!!!!!!!!!!!!!!!!@.",
"+>#++++++++++++++++++++++++++++++++++++)))))))))))))))))))))))))))))))))))''''''''''''''''''''''''''''''''''''''!!!!!!!!!!!!!!!!!!!!!!!!!!!!!!!!!!!!@.",
"+@#++++++++++++++++++++++++++++++++++++)))))))))))))))))))))))))))))))))))''''''''''''''''''''''''''''''''''''''!!!!!!!!!!!!!!!!!!!!!!!!!!!!!!!!!!!!@.",
"+>#++++++++++++++++++++++++++++++++++++)))))))))))))))))))))))))))))))))))''''''''''''''''''''''''''''''''''''''!!!!!!!!!!!!!!!!!!!!!!!!!!!!!!!!!!!!@.",
"+@#++++++++++++++++++++++++++++++++++++)))))))))))))))))))))))))))))))))))''''''''''''''''''''''''''''''''''''''!!!!!!!!!!!!!!!!!!!!!!!!!!!!!!!!!!!!@.",
"+>#++++++++++++++++++++++++++++++++++++)))))))))))))))))))))))))))))))))))''''''''''''''''''''''''''''''''''''''!!!!!!!!!!!!!!!!!!!!!!!!!!!!!!!!!!!!@.",
"+@#++++++++++++++++++++++++++++++++++++)))))))))))))))))))))))))))))))))))''''''''''''''''''''''''''''''''''''''!!!!!!!!!!!!!!!!!!!!!!!!!!!!!!!!!!!!@.",
"+>#++++++++++++++++++++++++++++++++++++)))))))))))))))))))))))))))))))))))''''''''''''''''''''''''''''''''''''''!!!!!!!!!!!!!!!!!!!!!!!!!!!!!!!!!!!!@.",
"+@#++++++++++++++++++++++++++++++++++++)))))))))))))))))))))))))))))))))))''''''''''''''''''''''''''''''''''''''!!!!!!!!!!!!!!!!!!!!!!!!!!!!!!!!!!!!@.",
"+>#++++++++++++++++++++++++++++++++++++)))))))))))))))))))))))))))))))))))''''''''''''''''''''''''''''''''''''''!!!!!!!!!!!!!!!!!!!!!!!!!!!!!!!!!!!!@.",
"+@#++++++++++++++++++++++++++++++++++++)))))))))))))))))))))))))))))))))))''''''''''''''''''''''''''''''''''''''!!!!!!!!!!!!!!!!!!!!!!!!!!!!!!!!!!!!@.",
"+>#++++++++++++++++++++++++++++++++++++)))))))))))))))))))))))))))))))))))''''''''''''''''''''''''''''''''''''''!!!!!!!!!!!!!!!!!!!!!!!!!!!!!!!!!!!!@.",
"+@#++++++++++++++++++++++++++++++++++++)))))))))))))))))))))))))))))))))))''''''''''''''''''''''''''''''''''''''!!!!!!!!!!!!!!!!!!!!!!!!!!!!!!!!!!!!@.",
"+>#++++++++++++++++++++++++++++++++++++)))))))))))))))))))))))))))))))))))''''''''''''''''''''''''''''''''''''''!!!!!!!!!!!!!!!!!!!!!!!!!!!!!!!!!!!!@.",
"+@#++++++++++++++++++++++++++++++++++++)))))))))))))))))))))))))))))))))))''''''''''''''''''''''''''''''''''''''!!!!!!!!!!!!!!!!!!!!!!!!!!!!!!!!!!!!@.",
"+>#++++++++++++++++++++++++++++++++++++)))))))))))))))))))))))))))))))))))''''''''''''''''''''''''''''''''''''''!!!!!!!!!!!!!!!!!!!!!!!!!!!!!!!!!!!!@.",
"+@#++++++++++++++++++++++++++++++++++++)))))))))))))))))))))))))))))))))))''''''''''''''''''''''''''''''''''''''!!!!!!!!!!!!!!!!!!!!!!!!!!!!!!!!!!!!@.",
"+>#++++++++++++++++++++++++++++++++++++)))))))))))))))))))))))))))))))))))''''''''''''''''''''''''''''''''''''''!!!!!!!!!!!!!!!!!!!!!!!!!!!!!!!!!!!!@.",
"+@##################################################################################################################################################@.",
"+>@>@>>@>>>@>>>@>>>@>>>@>>>@>>@>@>@@>@@>@>@>@>@>@>@>@>@>@>@>@>@>@>@>@>@>@@@@@@@@@@@@@@@@@@@@@@@@@@@@@@@@@@@@@@@@@@@@@@@@@@@@@@@@@@@@@@@@@@@@@@@@@@@@@.",
"+....................................................................................................................................................."};
