#define cross_hair13x13_width 13
#define cross_hair13x13_height 13
static char cross_hair13x13_bits[] = {
   0xbf, 0xff, 0xbf, 0xff, 0xbf, 0xff, 0xbf, 0xff, 0xbf, 0xff, 0xbf, 0xff,
   0x00, 0xe0, 0xbf, 0xff, 0xbf, 0xff, 0xbf, 0xff, 0xbf, 0xff, 0xbf, 0xff,
   0xbf, 0xff};
